<svg xmlns="http://www.w3.org/2000/svg" viewBox="0 0 1024 1024">
  <defs>
    <linearGradient id="bg" x1="128" y1="64" x2="896" y2="960" gradientUnits="userSpaceOnUse">
      <stop offset="0" stop-color="#173B86"/>
      <stop offset="0.55" stop-color="#071A3B"/>
      <stop offset="1" stop-color="#031027"/>
    </linearGradient>
    <linearGradient id="check" x1="548" y1="664" x2="852" y2="440" gradientUnits="userSpaceOnUse">
      <stop offset="0" stop-color="#0B67FF"/>
      <stop offset="1" stop-color="#2B8CFF"/>
    </linearGradient>
  </defs>

  <rect width="1024" height="1024" fill="#071A3B"/>
  <rect x="72" y="72" width="880" height="880" rx="212" fill="url(#bg)"/>

  <rect x="292" y="218" width="92" height="142" rx="42" fill="#FFFFFF"/>
  <rect x="466" y="218" width="92" height="142" rx="42" fill="#FFFFFF"/>
  <rect x="640" y="218" width="92" height="142" rx="42" fill="#FFFFFF"/>

  <rect x="238" y="292" width="548" height="462" rx="64" fill="#FFFFFF"/>
  <rect x="284" y="362" width="456" height="344" rx="28" fill="#F5F8FC" stroke="#C9D3E2" stroke-width="18"/>

  <path d="M336 442l46 46 82-92" fill="none" stroke="#0A2B64" stroke-width="42" stroke-linecap="round" stroke-linejoin="round"/>
  <path d="M336 544l46 46 82-92" fill="none" stroke="#0A2B64" stroke-width="42" stroke-linecap="round" stroke-linejoin="round"/>
  <path d="M336 646l46 46 82-92" fill="none" stroke="#0A2B64" stroke-width="42" stroke-linecap="round" stroke-linejoin="round"/>

  <path d="M508 430h164" stroke="#0A2B64" stroke-width="38" stroke-linecap="round"/>
  <path d="M508 534h164" stroke="#0A2B64" stroke-width="38" stroke-linecap="round"/>
  <path d="M508 638h74" stroke="#0A2B64" stroke-width="38" stroke-linecap="round"/>

  <path d="M584 640l108 108 222-268" fill="none" stroke="#06204B" stroke-width="104" stroke-linecap="round" stroke-linejoin="round" opacity="0.28"/>
  <path d="M584 628l108 108 222-268" fill="none" stroke="url(#check)" stroke-width="84" stroke-linecap="round" stroke-linejoin="round"/>
</svg>
